<svg id="visual" viewBox="0 0 960 300" width="960" height="300" xmlns="http://www.w3.org/2000/svg" xmlns:xlink="http://www.w3.org/1999/xlink" version="1.1"><rect x="0" y="0" width="960" height="300" fill="#202731"></rect><path d="M0 161L7 157.8C14 154.7 28 148.3 41.8 147C55.7 145.7 69.3 149.3 83.2 159C97 168.7 111 184.3 125 188.5C139 192.7 153 185.3 167 176.3C181 167.3 195 156.7 208.8 161.7C222.7 166.7 236.3 187.3 250.2 193.3C264 199.3 278 190.7 292 187.5C306 184.3 320 186.7 334 184.2C348 181.7 362 174.3 375.8 177.8C389.7 181.3 403.3 195.7 417.2 196.7C431 197.7 445 185.3 459 177.2C473 169 487 165 501 168.8C515 172.7 529 184.3 542.8 181.2C556.7 178 570.3 160 584.2 153.3C598 146.7 612 151.3 626 158.8C640 166.3 654 176.7 668 176.3C682 176 696 165 709.8 161C723.7 157 737.3 160 751.2 163.3C765 166.7 779 170.3 793 176.8C807 183.3 821 192.7 835 190C849 187.3 863 172.7 876.8 163.2C890.7 153.7 904.3 149.3 918.2 153C932 156.7 946 168.3 953 174.2L960 180L960 301L953 301C946 301 932 301 918.2 301C904.3 301 890.7 301 876.8 301C863 301 849 301 835 301C821 301 807 301 793 301C779 301 765 301 751.2 301C737.3 301 723.7 301 709.8 301C696 301 682 301 668 301C654 301 640 301 626 301C612 301 598 301 584.2 301C570.3 301 556.7 301 542.8 301C529 301 515 301 501 301C487 301 473 301 459 301C445 301 431 301 417.2 301C403.3 301 389.7 301 375.8 301C362 301 348 301 334 301C320 301 306 301 292 301C278 301 264 301 250.2 301C236.3 301 222.7 301 208.8 301C195 301 181 301 167 301C153 301 139 301 125 301C111 301 97 301 83.2 301C69.3 301 55.7 301 41.8 301C28 301 14 301 7 301L0 301Z" fill="#f9cf4e"></path><path d="M0 192L7 196.7C14 201.3 28 210.7 41.8 216.2C55.7 221.7 69.3 223.3 83.2 224C97 224.7 111 224.3 125 224.5C139 224.7 153 225.3 167 216C181 206.7 195 187.3 208.8 185.3C222.7 183.3 236.3 198.7 250.2 202.2C264 205.7 278 197.3 292 199.2C306 201 320 213 334 214.7C348 216.3 362 207.7 375.8 204.8C389.7 202 403.3 205 417.2 202.3C431 199.7 445 191.3 459 191C473 190.7 487 198.3 501 203C515 207.7 529 209.3 542.8 205.7C556.7 202 570.3 193 584.2 186.3C598 179.7 612 175.3 626 181.7C640 188 654 205 668 204.2C682 203.3 696 184.7 709.8 181.5C723.7 178.3 737.3 190.7 751.2 197.3C765 204 779 205 793 203.7C807 202.3 821 198.7 835 198.3C849 198 863 201 876.8 206.3C890.7 211.7 904.3 219.3 918.2 215.8C932 212.3 946 197.7 953 190.3L960 183L960 301L953 301C946 301 932 301 918.2 301C904.3 301 890.7 301 876.8 301C863 301 849 301 835 301C821 301 807 301 793 301C779 301 765 301 751.2 301C737.3 301 723.7 301 709.8 301C696 301 682 301 668 301C654 301 640 301 626 301C612 301 598 301 584.2 301C570.3 301 556.7 301 542.8 301C529 301 515 301 501 301C487 301 473 301 459 301C445 301 431 301 417.2 301C403.3 301 389.7 301 375.8 301C362 301 348 301 334 301C320 301 306 301 292 301C278 301 264 301 250.2 301C236.3 301 222.7 301 208.8 301C195 301 181 301 167 301C153 301 139 301 125 301C111 301 97 301 83.2 301C69.3 301 55.7 301 41.8 301C28 301 14 301 7 301L0 301Z" fill="#fbb52f"></path><path d="M0 201L7 201C14 201 28 201 41.8 202C55.7 203 69.3 205 83.2 211.2C97 217.3 111 227.7 125 231.3C139 235 153 232 167 225.3C181 218.7 195 208.3 208.8 204.5C222.7 200.7 236.3 203.3 250.2 207.5C264 211.7 278 217.3 292 223.2C306 229 320 235 334 231.8C348 228.7 362 216.3 375.8 209.3C389.7 202.3 403.3 200.7 417.2 205.3C431 210 445 221 459 223.5C473 226 487 220 501 216.7C515 213.3 529 212.7 542.8 208.8C556.7 205 570.3 198 584.2 194.2C598 190.3 612 189.7 626 194.2C640 198.7 654 208.3 668 213.7C682 219 696 220 709.8 218.5C723.7 217 737.3 213 751.2 213.2C765 213.3 779 217.7 793 214.7C807 211.7 821 201.3 835 199.2C849 197 863 203 876.8 203C890.7 203 904.3 197 918.2 200.8C932 204.7 946 218.3 953 225.2L960 232L960 301L953 301C946 301 932 301 918.2 301C904.3 301 890.7 301 876.8 301C863 301 849 301 835 301C821 301 807 301 793 301C779 301 765 301 751.2 301C737.3 301 723.7 301 709.8 301C696 301 682 301 668 301C654 301 640 301 626 301C612 301 598 301 584.2 301C570.3 301 556.7 301 542.8 301C529 301 515 301 501 301C487 301 473 301 459 301C445 301 431 301 417.2 301C403.3 301 389.7 301 375.8 301C362 301 348 301 334 301C320 301 306 301 292 301C278 301 264 301 250.2 301C236.3 301 222.7 301 208.8 301C195 301 181 301 167 301C153 301 139 301 125 301C111 301 97 301 83.2 301C69.3 301 55.7 301 41.8 301C28 301 14 301 7 301L0 301Z" fill="#fd9910"></path><path d="M0 226L7 228C14 230 28 234 41.8 236.7C55.7 239.3 69.3 240.7 83.2 237.2C97 233.7 111 225.3 125 221C139 216.7 153 216.3 167 223C181 229.7 195 243.3 208.8 249.8C222.7 256.3 236.3 255.7 250.2 249.7C264 243.7 278 232.3 292 227.3C306 222.3 320 223.7 334 222.8C348 222 362 219 375.8 220.8C389.7 222.7 403.3 229.3 417.2 234C431 238.7 445 241.3 459 240.5C473 239.7 487 235.3 501 233.2C515 231 529 231 542.8 232.7C556.7 234.3 570.3 237.7 584.2 241.7C598 245.7 612 250.3 626 248.8C640 247.3 654 239.7 668 234.8C682 230 696 228 709.8 226.7C723.7 225.3 737.3 224.7 751.2 224.3C765 224 779 224 793 226C807 228 821 232 835 231.2C849 230.3 863 224.7 876.8 221.3C890.7 218 904.3 217 918.2 217.8C932 218.7 946 221.3 953 222.7L960 224L960 301L953 301C946 301 932 301 918.2 301C904.3 301 890.7 301 876.8 301C863 301 849 301 835 301C821 301 807 301 793 301C779 301 765 301 751.2 301C737.3 301 723.7 301 709.8 301C696 301 682 301 668 301C654 301 640 301 626 301C612 301 598 301 584.2 301C570.3 301 556.7 301 542.8 301C529 301 515 301 501 301C487 301 473 301 459 301C445 301 431 301 417.2 301C403.3 301 389.7 301 375.8 301C362 301 348 301 334 301C320 301 306 301 292 301C278 301 264 301 250.2 301C236.3 301 222.7 301 208.8 301C195 301 181 301 167 301C153 301 139 301 125 301C111 301 97 301 83.2 301C69.3 301 55.7 301 41.8 301C28 301 14 301 7 301L0 301Z" fill="#ff7a00"></path><path d="M0 239L7 243.3C14 247.7 28 256.3 41.8 259.3C55.7 262.3 69.3 259.7 83.2 256.3C97 253 111 249 125 247.5C139 246 153 247 167 246.5C181 246 195 244 208.8 247.8C222.7 251.7 236.3 261.3 250.2 265.5C264 269.7 278 268.3 292 263.5C306 258.7 320 250.3 334 250.3C348 250.3 362 258.7 375.8 258.8C389.7 259 403.3 251 417.2 246.3C431 241.7 445 240.3 459 240C473 239.7 487 240.3 501 245.3C515 250.3 529 259.7 542.8 260.3C556.7 261 570.3 253 584.2 248.8C598 244.7 612 244.3 626 244.8C640 245.3 654 246.7 668 247.3C682 248 696 248 709.8 252C723.7 256 737.3 264 751.2 266.3C765 268.7 779 265.3 793 264.3C807 263.3 821 264.7 835 260.5C849 256.3 863 246.7 876.8 244.5C890.7 242.3 904.3 247.7 918.2 250.8C932 254 946 255 953 255.5L960 256L960 301L953 301C946 301 932 301 918.2 301C904.3 301 890.7 301 876.8 301C863 301 849 301 835 301C821 301 807 301 793 301C779 301 765 301 751.2 301C737.3 301 723.7 301 709.8 301C696 301 682 301 668 301C654 301 640 301 626 301C612 301 598 301 584.2 301C570.3 301 556.7 301 542.8 301C529 301 515 301 501 301C487 301 473 301 459 301C445 301 431 301 417.2 301C403.3 301 389.7 301 375.8 301C362 301 348 301 334 301C320 301 306 301 292 301C278 301 264 301 250.2 301C236.3 301 222.7 301 208.8 301C195 301 181 301 167 301C153 301 139 301 125 301C111 301 97 301 83.2 301C69.3 301 55.7 301 41.8 301C28 301 14 301 7 301L0 301Z" fill="#ff5400"></path><path d="M0 262L7 266C14 270 28 278 41.8 279C55.7 280 69.3 274 83.2 272.5C97 271 111 274 125 276.2C139 278.3 153 279.7 167 278.2C181 276.7 195 272.3 208.8 269.5C222.7 266.7 236.3 265.3 250.2 264.2C264 263 278 262 292 263.7C306 265.3 320 269.7 334 273.8C348 278 362 282 375.8 280.8C389.7 279.7 403.3 273.3 417.2 273.2C431 273 445 279 459 282.3C473 285.7 487 286.3 501 282.2C515 278 529 269 542.8 264.7C556.7 260.3 570.3 260.7 584.2 264.3C598 268 612 275 626 274.8C640 274.7 654 267.3 668 265.3C682 263.3 696 266.7 709.8 268.3C723.7 270 737.3 270 751.2 269.7C765 269.3 779 268.7 793 269.2C807 269.7 821 271.3 835 271.8C849 272.3 863 271.7 876.8 273C890.7 274.3 904.3 277.7 918.2 278.5C932 279.3 946 277.7 953 276.8L960 276L960 301L953 301C946 301 932 301 918.2 301C904.3 301 890.7 301 876.8 301C863 301 849 301 835 301C821 301 807 301 793 301C779 301 765 301 751.2 301C737.3 301 723.7 301 709.8 301C696 301 682 301 668 301C654 301 640 301 626 301C612 301 598 301 584.2 301C570.3 301 556.7 301 542.8 301C529 301 515 301 501 301C487 301 473 301 459 301C445 301 431 301 417.2 301C403.3 301 389.7 301 375.8 301C362 301 348 301 334 301C320 301 306 301 292 301C278 301 264 301 250.2 301C236.3 301 222.7 301 208.8 301C195 301 181 301 167 301C153 301 139 301 125 301C111 301 97 301 83.2 301C69.3 301 55.7 301 41.8 301C28 301 14 301 7 301L0 301Z" fill="#ff0000"></path></svg>
